<mxfile host="app.diagrams.net" modified="2022-06-16T07:16:37.730Z" agent="5.0 (Windows NT 10.0; Win64; x64) AppleWebKit/537.36 (KHTML, like Gecko) Chrome/102.0.0.0 Safari/537.36" etag="SzgrMsugr_iamWxzYH4O" version="20.0.1" type="github">
  <diagram id="QCeiseQyNw4A7dCuMOGN" name="Page-1">
    <mxGraphModel dx="1151" dy="1207" grid="1" gridSize="10" guides="1" tooltips="1" connect="1" arrows="1" fold="1" page="1" pageScale="1" pageWidth="827" pageHeight="1169" math="0" shadow="0">
      <root>
        <mxCell id="0" />
        <mxCell id="1" parent="0" />
        <mxCell id="ZYJj1VUCgy8PRU-QA9FJ-3" style="edgeStyle=orthogonalEdgeStyle;rounded=0;orthogonalLoop=1;jettySize=auto;html=1;entryX=0.5;entryY=0;entryDx=0;entryDy=0;" edge="1" parent="1" source="ZYJj1VUCgy8PRU-QA9FJ-2" target="ZYJj1VUCgy8PRU-QA9FJ-5">
          <mxGeometry relative="1" as="geometry">
            <mxPoint x="100" y="150" as="targetPoint" />
          </mxGeometry>
        </mxCell>
        <mxCell id="ZYJj1VUCgy8PRU-QA9FJ-2" value="start" style="strokeWidth=2;html=1;shape=mxgraph.flowchart.terminator;whiteSpace=wrap;" vertex="1" parent="1">
          <mxGeometry x="50" y="20" width="100" height="60" as="geometry" />
        </mxCell>
        <mxCell id="ZYJj1VUCgy8PRU-QA9FJ-5" value="int list[7] = { 6,4,8,3,1,9,7 };&lt;br&gt;	sort(list, 7);&lt;br&gt;return 0;" style="rounded=1;whiteSpace=wrap;html=1;absoluteArcSize=1;arcSize=14;strokeWidth=2;" vertex="1" parent="1">
          <mxGeometry x="5" y="120" width="190" height="60" as="geometry" />
        </mxCell>
        <mxCell id="ZYJj1VUCgy8PRU-QA9FJ-7" style="edgeStyle=orthogonalEdgeStyle;rounded=0;orthogonalLoop=1;jettySize=auto;html=1;" edge="1" parent="1" source="ZYJj1VUCgy8PRU-QA9FJ-6" target="ZYJj1VUCgy8PRU-QA9FJ-8">
          <mxGeometry relative="1" as="geometry">
            <mxPoint x="329.9999999999998" y="130" as="targetPoint" />
          </mxGeometry>
        </mxCell>
        <mxCell id="ZYJj1VUCgy8PRU-QA9FJ-6" value="void sort(int* v,int size)" style="rounded=1;whiteSpace=wrap;html=1;absoluteArcSize=1;arcSize=14;strokeWidth=2;" vertex="1" parent="1">
          <mxGeometry x="260" y="40" width="140" height="50" as="geometry" />
        </mxCell>
        <mxCell id="ZYJj1VUCgy8PRU-QA9FJ-10" style="edgeStyle=orthogonalEdgeStyle;rounded=0;orthogonalLoop=1;jettySize=auto;html=1;entryX=0.5;entryY=0;entryDx=0;entryDy=0;entryPerimeter=0;" edge="1" parent="1" source="ZYJj1VUCgy8PRU-QA9FJ-8" target="ZYJj1VUCgy8PRU-QA9FJ-9">
          <mxGeometry relative="1" as="geometry">
            <mxPoint x="329.9999999999998" y="240" as="targetPoint" />
          </mxGeometry>
        </mxCell>
        <mxCell id="ZYJj1VUCgy8PRU-QA9FJ-8" value="int check=0;" style="rounded=1;whiteSpace=wrap;html=1;absoluteArcSize=1;arcSize=14;strokeWidth=2;" vertex="1" parent="1">
          <mxGeometry x="280" y="120" width="100" height="60" as="geometry" />
        </mxCell>
        <mxCell id="ZYJj1VUCgy8PRU-QA9FJ-12" style="edgeStyle=orthogonalEdgeStyle;rounded=0;orthogonalLoop=1;jettySize=auto;html=1;entryX=0.5;entryY=0;entryDx=0;entryDy=0;" edge="1" parent="1" source="ZYJj1VUCgy8PRU-QA9FJ-9" target="ZYJj1VUCgy8PRU-QA9FJ-11">
          <mxGeometry relative="1" as="geometry" />
        </mxCell>
        <mxCell id="ZYJj1VUCgy8PRU-QA9FJ-9" value="int i =0; i &lt; size; i++" style="strokeWidth=2;html=1;shape=mxgraph.flowchart.loop_limit;whiteSpace=wrap;" vertex="1" parent="1">
          <mxGeometry x="270" y="210" width="120" height="60" as="geometry" />
        </mxCell>
        <mxCell id="ZYJj1VUCgy8PRU-QA9FJ-14" style="edgeStyle=orthogonalEdgeStyle;rounded=0;orthogonalLoop=1;jettySize=auto;html=1;entryX=0.5;entryY=0;entryDx=0;entryDy=0;entryPerimeter=0;" edge="1" parent="1" source="ZYJj1VUCgy8PRU-QA9FJ-11" target="ZYJj1VUCgy8PRU-QA9FJ-13">
          <mxGeometry relative="1" as="geometry" />
        </mxCell>
        <mxCell id="ZYJj1VUCgy8PRU-QA9FJ-11" value="check = i;" style="rounded=1;whiteSpace=wrap;html=1;absoluteArcSize=1;arcSize=14;strokeWidth=2;" vertex="1" parent="1">
          <mxGeometry x="280" y="300" width="100" height="40" as="geometry" />
        </mxCell>
        <mxCell id="ZYJj1VUCgy8PRU-QA9FJ-16" style="edgeStyle=orthogonalEdgeStyle;rounded=0;orthogonalLoop=1;jettySize=auto;html=1;entryX=0.5;entryY=0;entryDx=0;entryDy=0;entryPerimeter=0;" edge="1" parent="1" source="ZYJj1VUCgy8PRU-QA9FJ-13" target="ZYJj1VUCgy8PRU-QA9FJ-15">
          <mxGeometry relative="1" as="geometry" />
        </mxCell>
        <mxCell id="ZYJj1VUCgy8PRU-QA9FJ-13" value="int j = i+1; j &lt; size; j++" style="strokeWidth=2;html=1;shape=mxgraph.flowchart.loop_limit;whiteSpace=wrap;" vertex="1" parent="1">
          <mxGeometry x="260" y="390" width="140" height="60" as="geometry" />
        </mxCell>
        <mxCell id="ZYJj1VUCgy8PRU-QA9FJ-17" value="false" style="edgeStyle=orthogonalEdgeStyle;rounded=0;orthogonalLoop=1;jettySize=auto;html=1;entryX=0.5;entryY=1;entryDx=0;entryDy=0;entryPerimeter=0;" edge="1" parent="1" source="ZYJj1VUCgy8PRU-QA9FJ-15" target="ZYJj1VUCgy8PRU-QA9FJ-21">
          <mxGeometry relative="1" as="geometry">
            <mxPoint x="449.9999999999998" y="535" as="targetPoint" />
            <Array as="points">
              <mxPoint x="420" y="535" />
              <mxPoint x="420" y="660" />
              <mxPoint x="330" y="660" />
            </Array>
          </mxGeometry>
        </mxCell>
        <mxCell id="ZYJj1VUCgy8PRU-QA9FJ-18" value="true" style="edgeStyle=orthogonalEdgeStyle;rounded=0;orthogonalLoop=1;jettySize=auto;html=1;entryX=0.5;entryY=0;entryDx=0;entryDy=0;" edge="1" parent="1" source="ZYJj1VUCgy8PRU-QA9FJ-15" target="ZYJj1VUCgy8PRU-QA9FJ-19">
          <mxGeometry relative="1" as="geometry">
            <mxPoint x="329.9999999999998" y="600" as="targetPoint" />
          </mxGeometry>
        </mxCell>
        <mxCell id="ZYJj1VUCgy8PRU-QA9FJ-15" value="v[check] &gt; v[j]" style="strokeWidth=2;html=1;shape=mxgraph.flowchart.decision;whiteSpace=wrap;" vertex="1" parent="1">
          <mxGeometry x="280" y="500" width="100" height="70" as="geometry" />
        </mxCell>
        <mxCell id="ZYJj1VUCgy8PRU-QA9FJ-22" style="edgeStyle=orthogonalEdgeStyle;rounded=0;orthogonalLoop=1;jettySize=auto;html=1;entryX=0.5;entryY=1;entryDx=0;entryDy=0;entryPerimeter=0;" edge="1" parent="1" source="ZYJj1VUCgy8PRU-QA9FJ-19" target="ZYJj1VUCgy8PRU-QA9FJ-21">
          <mxGeometry relative="1" as="geometry" />
        </mxCell>
        <mxCell id="ZYJj1VUCgy8PRU-QA9FJ-19" value="check = j;" style="rounded=1;whiteSpace=wrap;html=1;absoluteArcSize=1;arcSize=14;strokeWidth=2;" vertex="1" parent="1">
          <mxGeometry x="280" y="610" width="100" height="30" as="geometry" />
        </mxCell>
        <mxCell id="ZYJj1VUCgy8PRU-QA9FJ-31" style="edgeStyle=orthogonalEdgeStyle;rounded=0;orthogonalLoop=1;jettySize=auto;html=1;entryX=0.5;entryY=0;entryDx=0;entryDy=0;entryPerimeter=0;" edge="1" parent="1" source="ZYJj1VUCgy8PRU-QA9FJ-21" target="ZYJj1VUCgy8PRU-QA9FJ-24">
          <mxGeometry relative="1" as="geometry" />
        </mxCell>
        <mxCell id="ZYJj1VUCgy8PRU-QA9FJ-21" value="" style="strokeWidth=2;html=1;shape=mxgraph.flowchart.loop_limit;whiteSpace=wrap;rotation=-180;" vertex="1" parent="1">
          <mxGeometry x="280" y="680" width="100" height="60" as="geometry" />
        </mxCell>
        <mxCell id="ZYJj1VUCgy8PRU-QA9FJ-23" style="edgeStyle=orthogonalEdgeStyle;rounded=0;orthogonalLoop=1;jettySize=auto;html=1;entryX=0.5;entryY=0;entryDx=0;entryDy=0;entryPerimeter=0;" edge="1" parent="1" source="ZYJj1VUCgy8PRU-QA9FJ-24" target="ZYJj1VUCgy8PRU-QA9FJ-27">
          <mxGeometry relative="1" as="geometry" />
        </mxCell>
        <mxCell id="ZYJj1VUCgy8PRU-QA9FJ-24" value="int k = 0; k &amp;lt; size; k++" style="strokeWidth=2;html=1;shape=mxgraph.flowchart.loop_limit;whiteSpace=wrap;" vertex="1" parent="1">
          <mxGeometry x="260" y="780" width="140" height="60" as="geometry" />
        </mxCell>
        <mxCell id="ZYJj1VUCgy8PRU-QA9FJ-26" value="true" style="edgeStyle=orthogonalEdgeStyle;rounded=0;orthogonalLoop=1;jettySize=auto;html=1;entryX=0.5;entryY=0;entryDx=0;entryDy=0;entryPerimeter=0;" edge="1" parent="1" source="ZYJj1VUCgy8PRU-QA9FJ-27" target="ZYJj1VUCgy8PRU-QA9FJ-43">
          <mxGeometry relative="1" as="geometry">
            <mxPoint x="329.9999999999998" y="1000" as="targetPoint" />
          </mxGeometry>
        </mxCell>
        <mxCell id="ZYJj1VUCgy8PRU-QA9FJ-33" value="false" style="edgeStyle=orthogonalEdgeStyle;rounded=0;orthogonalLoop=1;jettySize=auto;html=1;entryX=0;entryY=0.5;entryDx=0;entryDy=0;entryPerimeter=0;" edge="1" parent="1" source="ZYJj1VUCgy8PRU-QA9FJ-27" target="ZYJj1VUCgy8PRU-QA9FJ-34">
          <mxGeometry relative="1" as="geometry">
            <mxPoint x="479.9999999999998" y="925" as="targetPoint" />
          </mxGeometry>
        </mxCell>
        <mxCell id="ZYJj1VUCgy8PRU-QA9FJ-27" value="i == k" style="strokeWidth=2;html=1;shape=mxgraph.flowchart.decision;whiteSpace=wrap;" vertex="1" parent="1">
          <mxGeometry x="280" y="890" width="100" height="70" as="geometry" />
        </mxCell>
        <mxCell id="ZYJj1VUCgy8PRU-QA9FJ-28" style="edgeStyle=orthogonalEdgeStyle;rounded=0;orthogonalLoop=1;jettySize=auto;html=1;entryX=0.5;entryY=1;entryDx=0;entryDy=0;entryPerimeter=0;exitX=0.5;exitY=1;exitDx=0;exitDy=0;exitPerimeter=0;" edge="1" parent="1" source="ZYJj1VUCgy8PRU-QA9FJ-43" target="ZYJj1VUCgy8PRU-QA9FJ-30">
          <mxGeometry relative="1" as="geometry">
            <mxPoint x="330.0000000000002" y="1030" as="sourcePoint" />
            <mxPoint x="329.9999999999998" y="1080" as="targetPoint" />
            <Array as="points">
              <mxPoint x="330" y="1040" />
            </Array>
          </mxGeometry>
        </mxCell>
        <mxCell id="ZYJj1VUCgy8PRU-QA9FJ-42" style="edgeStyle=orthogonalEdgeStyle;rounded=0;orthogonalLoop=1;jettySize=auto;html=1;entryX=0.5;entryY=0;entryDx=0;entryDy=0;entryPerimeter=0;" edge="1" parent="1" source="ZYJj1VUCgy8PRU-QA9FJ-30" target="ZYJj1VUCgy8PRU-QA9FJ-46">
          <mxGeometry relative="1" as="geometry">
            <mxPoint x="329.9999999999998" y="1210" as="targetPoint" />
          </mxGeometry>
        </mxCell>
        <mxCell id="ZYJj1VUCgy8PRU-QA9FJ-30" value="" style="strokeWidth=2;html=1;shape=mxgraph.flowchart.loop_limit;whiteSpace=wrap;rotation=-180;" vertex="1" parent="1">
          <mxGeometry x="280" y="1100" width="100" height="60" as="geometry" />
        </mxCell>
        <mxCell id="ZYJj1VUCgy8PRU-QA9FJ-35" value="false" style="edgeStyle=orthogonalEdgeStyle;rounded=0;orthogonalLoop=1;jettySize=auto;html=1;entryX=0;entryY=0.5;entryDx=0;entryDy=0;entryPerimeter=0;" edge="1" parent="1" source="ZYJj1VUCgy8PRU-QA9FJ-34" target="ZYJj1VUCgy8PRU-QA9FJ-45">
          <mxGeometry relative="1" as="geometry">
            <mxPoint x="599.9999999999998" y="927.4285714285716" as="targetPoint" />
          </mxGeometry>
        </mxCell>
        <mxCell id="ZYJj1VUCgy8PRU-QA9FJ-37" value="true" style="edgeStyle=orthogonalEdgeStyle;rounded=0;orthogonalLoop=1;jettySize=auto;html=1;entryX=0.5;entryY=0;entryDx=0;entryDy=0;entryPerimeter=0;" edge="1" parent="1" source="ZYJj1VUCgy8PRU-QA9FJ-34" target="ZYJj1VUCgy8PRU-QA9FJ-44">
          <mxGeometry relative="1" as="geometry">
            <mxPoint x="499.9999999999998" y="1000" as="targetPoint" />
          </mxGeometry>
        </mxCell>
        <mxCell id="ZYJj1VUCgy8PRU-QA9FJ-34" value="check == k" style="strokeWidth=2;html=1;shape=mxgraph.flowchart.decision;whiteSpace=wrap;" vertex="1" parent="1">
          <mxGeometry x="450" y="875" width="100" height="100" as="geometry" />
        </mxCell>
        <mxCell id="ZYJj1VUCgy8PRU-QA9FJ-41" style="edgeStyle=orthogonalEdgeStyle;rounded=0;orthogonalLoop=1;jettySize=auto;html=1;entryX=0.5;entryY=1;entryDx=0;entryDy=0;entryPerimeter=0;exitX=0.5;exitY=1;exitDx=0;exitDy=0;exitPerimeter=0;" edge="1" parent="1" source="ZYJj1VUCgy8PRU-QA9FJ-45" target="ZYJj1VUCgy8PRU-QA9FJ-30">
          <mxGeometry relative="1" as="geometry">
            <mxPoint x="649.9999999999998" y="1010" as="targetPoint" />
            <mxPoint x="650.0000000000002" y="945" as="sourcePoint" />
            <Array as="points">
              <mxPoint x="650" y="940" />
              <mxPoint x="650" y="1070" />
              <mxPoint x="330" y="1070" />
            </Array>
          </mxGeometry>
        </mxCell>
        <mxCell id="ZYJj1VUCgy8PRU-QA9FJ-40" style="edgeStyle=orthogonalEdgeStyle;rounded=0;orthogonalLoop=1;jettySize=auto;html=1;entryX=0.5;entryY=1;entryDx=0;entryDy=0;entryPerimeter=0;exitX=0.547;exitY=1.004;exitDx=0;exitDy=0;exitPerimeter=0;" edge="1" parent="1" source="ZYJj1VUCgy8PRU-QA9FJ-44" target="ZYJj1VUCgy8PRU-QA9FJ-30">
          <mxGeometry relative="1" as="geometry">
            <mxPoint x="499.9999999999998" y="1080" as="targetPoint" />
            <mxPoint x="500.0000000000002" y="1030" as="sourcePoint" />
            <Array as="points">
              <mxPoint x="500" y="1020" />
              <mxPoint x="500" y="1070" />
              <mxPoint x="330" y="1070" />
            </Array>
          </mxGeometry>
        </mxCell>
        <mxCell id="ZYJj1VUCgy8PRU-QA9FJ-43" value="cout &lt;&lt; &quot; * &quot;;" style="strokeWidth=2;html=1;shape=mxgraph.flowchart.document2;whiteSpace=wrap;size=0.25;" vertex="1" parent="1">
          <mxGeometry x="280" y="1000" width="100" height="40" as="geometry" />
        </mxCell>
        <mxCell id="ZYJj1VUCgy8PRU-QA9FJ-44" value="cout &lt;&lt; &quot; + &quot;;" style="strokeWidth=2;html=1;shape=mxgraph.flowchart.document2;whiteSpace=wrap;size=0.25;" vertex="1" parent="1">
          <mxGeometry x="450" y="1000" width="100" height="40" as="geometry" />
        </mxCell>
        <mxCell id="ZYJj1VUCgy8PRU-QA9FJ-45" value="cout &lt;&lt; &quot;   &quot;;" style="strokeWidth=2;html=1;shape=mxgraph.flowchart.document2;whiteSpace=wrap;size=0.25;" vertex="1" parent="1">
          <mxGeometry x="600" y="905" width="100" height="40" as="geometry" />
        </mxCell>
        <mxCell id="ZYJj1VUCgy8PRU-QA9FJ-48" style="edgeStyle=orthogonalEdgeStyle;rounded=0;orthogonalLoop=1;jettySize=auto;html=1;entryX=0.5;entryY=0;entryDx=0;entryDy=0;entryPerimeter=0;" edge="1" parent="1" source="ZYJj1VUCgy8PRU-QA9FJ-46" target="ZYJj1VUCgy8PRU-QA9FJ-47">
          <mxGeometry relative="1" as="geometry" />
        </mxCell>
        <mxCell id="ZYJj1VUCgy8PRU-QA9FJ-46" value="int k = 0; k &lt; size; k++" style="strokeWidth=2;html=1;shape=mxgraph.flowchart.loop_limit;whiteSpace=wrap;" vertex="1" parent="1">
          <mxGeometry x="260" y="1200" width="140" height="60" as="geometry" />
        </mxCell>
        <mxCell id="ZYJj1VUCgy8PRU-QA9FJ-49" style="edgeStyle=orthogonalEdgeStyle;rounded=0;orthogonalLoop=1;jettySize=auto;html=1;" edge="1" parent="1" source="ZYJj1VUCgy8PRU-QA9FJ-47" target="ZYJj1VUCgy8PRU-QA9FJ-50">
          <mxGeometry relative="1" as="geometry">
            <mxPoint x="329.9999999999998" y="1410" as="targetPoint" />
          </mxGeometry>
        </mxCell>
        <mxCell id="ZYJj1VUCgy8PRU-QA9FJ-47" value="cout &lt;&lt; &quot; &quot;&lt;&lt; v[k]&lt;&lt; &quot; &quot;;" style="strokeWidth=2;html=1;shape=mxgraph.flowchart.document2;whiteSpace=wrap;size=0.4976190476190443;" vertex="1" parent="1">
          <mxGeometry x="250" y="1290" width="160" height="60" as="geometry" />
        </mxCell>
        <mxCell id="ZYJj1VUCgy8PRU-QA9FJ-52" style="edgeStyle=orthogonalEdgeStyle;rounded=0;orthogonalLoop=1;jettySize=auto;html=1;entryX=0.5;entryY=0;entryDx=0;entryDy=0;entryPerimeter=0;" edge="1" parent="1" source="ZYJj1VUCgy8PRU-QA9FJ-50" target="ZYJj1VUCgy8PRU-QA9FJ-51">
          <mxGeometry relative="1" as="geometry" />
        </mxCell>
        <mxCell id="ZYJj1VUCgy8PRU-QA9FJ-50" value="" style="strokeWidth=2;html=1;shape=mxgraph.flowchart.loop_limit;whiteSpace=wrap;rotation=-180;" vertex="1" parent="1">
          <mxGeometry x="279.9999999999998" y="1380" width="100" height="60" as="geometry" />
        </mxCell>
        <mxCell id="ZYJj1VUCgy8PRU-QA9FJ-53" style="edgeStyle=orthogonalEdgeStyle;rounded=0;orthogonalLoop=1;jettySize=auto;html=1;entryX=0.5;entryY=0;entryDx=0;entryDy=0;" edge="1" parent="1" source="ZYJj1VUCgy8PRU-QA9FJ-51" target="ZYJj1VUCgy8PRU-QA9FJ-54">
          <mxGeometry relative="1" as="geometry">
            <mxPoint x="329.9999999999998" y="1560" as="targetPoint" />
          </mxGeometry>
        </mxCell>
        <mxCell id="ZYJj1VUCgy8PRU-QA9FJ-51" value="cout &lt;&lt; endl;" style="strokeWidth=2;html=1;shape=mxgraph.flowchart.document2;whiteSpace=wrap;size=0.25;" vertex="1" parent="1">
          <mxGeometry x="280" y="1480" width="100" height="40" as="geometry" />
        </mxCell>
        <mxCell id="ZYJj1VUCgy8PRU-QA9FJ-55" style="edgeStyle=orthogonalEdgeStyle;rounded=0;orthogonalLoop=1;jettySize=auto;html=1;" edge="1" parent="1" source="ZYJj1VUCgy8PRU-QA9FJ-54" target="ZYJj1VUCgy8PRU-QA9FJ-56">
          <mxGeometry relative="1" as="geometry">
            <mxPoint x="329.9999999999998" y="1640" as="targetPoint" />
          </mxGeometry>
        </mxCell>
        <mxCell id="ZYJj1VUCgy8PRU-QA9FJ-54" value="int temp = v[i];&#xa;		v[i] = v[check];&#xa;		v[check] = temp;" style="rounded=1;whiteSpace=wrap;html=1;absoluteArcSize=1;arcSize=14;strokeWidth=2;" vertex="1" parent="1">
          <mxGeometry x="280" y="1560" width="100" height="40" as="geometry" />
        </mxCell>
        <mxCell id="ZYJj1VUCgy8PRU-QA9FJ-56" value="" style="strokeWidth=2;html=1;shape=mxgraph.flowchart.loop_limit;whiteSpace=wrap;rotation=-180;" vertex="1" parent="1">
          <mxGeometry x="279.9999999999998" y="1630" width="100" height="60" as="geometry" />
        </mxCell>
      </root>
    </mxGraphModel>
  </diagram>
</mxfile>
